<?xml version="1.0" encoding="utf-8"?><svg viewBox="0 0 435 48" xmlns="http://www.w3.org/2000/svg" xmlns:xlink="http://www.w3.org/1999/xlink"><style>:root>svg{display:none}:root>svg:target{display:block}</style><svg fill="none" viewBox="0 0 31 32" id="cart" xmlns="http://www.w3.org/2000/svg"><path d="M11.662 23.92a4.045 4.045 0 00-4.04 4.04 4.045 4.045 0 004.04 4.04 4.045 4.045 0 004.04-4.04 4.045 4.045 0 00-4.04-4.04zm0 5.656a1.618 1.618 0 01-1.616-1.616c0-.891.725-1.616 1.616-1.616.89 0 1.616.725 1.616 1.616 0 .892-.725 1.616-1.616 1.616zM23.621 23.92a4.045 4.045 0 00-4.04 4.04A4.045 4.045 0 0023.62 32a4.045 4.045 0 004.04-4.04 4.045 4.045 0 00-4.04-4.04zm0 5.656a1.618 1.618 0 01-1.616-1.616c0-.891.725-1.616 1.616-1.616.892 0 1.616.725 1.616 1.616 0 .892-.724 1.616-1.616 1.616zM30.63 7.892c-.23-.29-.579-.458-.948-.458H8.458L7.356 1.866a1.212 1.212 0 00-.97-.957L1.537.02A1.212 1.212 0 101.1 2.405l4.038.74 3.557 17.98c.112.567.61.976 1.19.976h16.969c.564 0 1.053-.389 1.18-.94L30.864 8.92a1.211 1.211 0 00-.233-1.027zm-4.74 11.785H10.88L8.937 9.859h19.22l-2.267 9.818z" fill="#fff"/></svg><svg fill="none" viewBox="0 0 33 32" id="fire" xmlns="http://www.w3.org/2000/svg"><path d="M17.747 7.25a6.71 6.71 0 011.25 3.9v1.35a1.92 1.92 0 001.864-1.455l.136-.545.37.443a3.937 3.937 0 01-.036 5.084 1.384 1.384 0 102.132 1.765l1.034-1.292 1 2.5a8.74 8.74 0 01-2.191 8.691l-.127.126a9.159 9.159 0 01-6.476 2.683h-1.02A9.16 9.16 0 018.62 15.507l4.048-4.9a3.369 3.369 0 00.481-3.512 3.367 3.367 0 011.21-4.17L16.496 1.5v1.85c0 1.398.437 2.762 1.25 3.9z" fill="url(#bpaint0_linear_1_95)"/><path d="M20.189 27.088l.004-.004A6.214 6.214 0 0021.757 21l-1.454 1.455a1.477 1.477 0 01-2.522-.979c-.017-.368.105-.73.34-1.013a3.907 3.907 0 00.494-4.248L16.258 11.5l-.363 3.988a3.566 3.566 0 01-1.323 2.46l-2.061 1.65a4.671 4.671 0 00-1.753 3.647v.567a4.672 4.672 0 004.717 4.671l1.445-.014a4.671 4.671 0 003.269-1.38z" fill="#FDD04A"/><path d="M8 12a.5.5 0 01-.5-.5v-1a.5.5 0 011 0v1a.5.5 0 01-.5.5z" fill="#FE691E"/><path d="M9.5 9.5A.5.5 0 019 9V8a.5.5 0 111 0v1a.5.5 0 01-.5.5z" fill="#FF8D54"/><path d="M7.5 7.5A.5.5 0 017 7V6a.5.5 0 111 0v1a.5.5 0 01-.5.5z" fill="#FFB895"/><path d="M25 13.5a.5.5 0 01-.5-.5v-1a.5.5 0 011 0v1a.5.5 0 01-.5.5z" fill="#FE691E"/><path d="M23.5 10a.5.5 0 01-.5-.5v-1a.5.5 0 011 0v1a.5.5 0 01-.5.5z" fill="#FF8D54"/><path d="M25.5 8.5A.5.5 0 0125 8V6.5a.5.5 0 011 0V8a.5.5 0 01-.5.5z" fill="#FFB895"/><defs><linearGradient id="bpaint0_linear_1_95" x1="16.194" y1="1.5" x2="16.194" y2="30.5" gradientUnits="userSpaceOnUse"><stop stop-color="#FF9159"/><stop offset=".688" stop-color="#FF7631"/><stop offset="1" stop-color="#FF6A1F"/></linearGradient></defs></svg><svg fill="none" viewBox="0 0 171 48" id="logo" xmlns="http://www.w3.org/2000/svg"><path d="M27.937 11.918c-5.42.696-16.843-2.302-17.54-7.723l-.08.01a16.494 16.494 0 0018.46 14.257 9.896 9.896 0 11-8.553 11.08A16.491 16.491 0 001.762 15.286l.01.08c5.42-.697 11.21 9.592 11.908 15.013h-.001a16.495 16.495 0 1014.258-18.462z" fill="url(#cpaint0_linear_1_60)"/><path d="M58.287 14.096V33h-3.791V14.096h3.791zm12.061 3.683c1.787 0 3.232.569 4.333 1.706 1.102 1.12 1.652 2.69 1.652 4.713V33h-3.791v-8.288c0-1.191-.298-2.103-.894-2.735-.596-.65-1.408-.975-2.438-.975-1.047 0-1.877.325-2.491.975-.596.632-.894 1.544-.894 2.735V33h-3.792V17.996h3.792v1.869a5.14 5.14 0 011.923-1.517 5.957 5.957 0 012.6-.569zm16.47 3.331h-2.627V33h-3.846V21.11H78.64v-3.114h1.706v-.758c0-1.842.524-3.196 1.571-4.063 1.047-.867 2.627-1.273 4.74-1.219v3.196c-.921-.018-1.562.136-1.923.46-.361.325-.542.912-.542 1.76v.624h2.627v3.114zm4.38-4.902c-.668 0-1.227-.207-1.679-.623-.433-.433-.65-.966-.65-1.598 0-.631.217-1.155.65-1.57.451-.434 1.011-.65 1.68-.65.667 0 1.218.216 1.651.65.452.415.678.939.678 1.57 0 .632-.226 1.165-.678 1.598-.433.416-.984.623-1.652.623zm1.87 1.788V33h-3.793V17.996h3.792zm12.06-.217c1.787 0 3.232.569 4.333 1.706 1.102 1.12 1.652 2.69 1.652 4.713V33h-3.791v-8.288c0-1.191-.298-2.103-.894-2.735-.596-.65-1.408-.975-2.438-.975-1.047 0-1.877.325-2.491.975-.596.632-.894 1.544-.894 2.735V33h-3.792V17.996h3.792v1.869a5.132 5.132 0 011.923-1.517 5.955 5.955 0 012.6-.569zm11.514-1.57c-.668 0-1.228-.208-1.679-.624-.434-.433-.65-.966-.65-1.598 0-.631.216-1.155.65-1.57.451-.434 1.011-.65 1.679-.65.668 0 1.219.216 1.652.65.451.415.677.939.677 1.57a2.13 2.13 0 01-.677 1.598c-.433.416-.984.623-1.652.623zm1.869 1.787V33h-3.792V17.996h3.792zm7.212 11.89h6.69V33h-10.996v-3.06l6.554-8.83h-6.527v-3.114h10.888v3.06l-6.609 8.83zm8.651-4.442c0-1.517.298-2.862.894-4.036.613-1.173 1.435-2.076 2.464-2.708 1.047-.632 2.212-.948 3.494-.948 1.119 0 2.094.226 2.925.677.849.452 1.526 1.02 2.031 1.706v-2.14h3.819V33h-3.819v-2.194c-.487.704-1.164 1.291-2.031 1.76-.849.452-1.833.678-2.952.678a6.445 6.445 0 01-3.467-.975c-1.029-.65-1.851-1.562-2.464-2.736-.596-1.191-.894-2.555-.894-4.09zm11.808.054c0-.92-.18-1.706-.542-2.356-.361-.668-.848-1.174-1.462-1.517a3.834 3.834 0 00-1.977-.542c-.704 0-1.354.172-1.95.515-.596.343-1.083.849-1.463 1.517-.361.65-.541 1.426-.541 2.329 0 .902.18 1.697.541 2.383.38.668.867 1.183 1.463 1.544a3.787 3.787 0 001.95.542c.704 0 1.363-.172 1.977-.515a3.937 3.937 0 001.462-1.517c.362-.668.542-1.462.542-2.383zm9.445-9.29c-.668 0-1.228-.207-1.679-.623a2.173 2.173 0 01-.65-1.598c0-.631.217-1.155.65-1.57.451-.434 1.011-.65 1.679-.65.668 0 1.219.216 1.652.65.452.415.677.939.677 1.57 0 .632-.225 1.165-.677 1.598-.433.416-.984.623-1.652.623zm1.869 1.788V33h-3.792V17.996h3.792z" fill="#fff"/><path d="M169.998 26.49H164.5v5.497h5.498V26.49z" fill="#3BAAFB"/><defs><linearGradient id="cpaint0_linear_1_60" x1="16.803" y1="9.706" x2="49.79" y2="47.641" gradientUnits="userSpaceOnUse"><stop stop-color="#57B8FF"/><stop offset=".941" stop-color="#038EF2"/><stop offset="1" stop-color="#fff" stop-opacity="0"/></linearGradient></defs></svg><svg fill="none" viewBox="0 0 435 16" id="underline" xmlns="http://www.w3.org/2000/svg"><g clip-path="url(#dclip0_1_91)"><path d="M2.5 13.927c30.667-9 159.6-21.6 430 0" stroke="#FDD048" stroke-width="4" stroke-linecap="round"/></g><defs><clipPath id="dclip0_1_91"><path fill="#fff" transform="translate(.5)" d="M0 0h434v16H0z"/></clipPath></defs></svg></svg>